<svg width="155" height="40" viewBox="0 0 155 40" fill="none" xmlns="http://www.w3.org/2000/svg">
<path d="M58.272 23.936L56.472 25.712V29H52.728V11.192H56.472V21.272L61.944 16.088H66.408L61.032 21.56L66.888 29H62.352L58.272 23.936ZM73.1933 29.192C71.8333 29.192 70.6093 28.912 69.5213 28.352C68.4493 27.776 67.6093 26.984 67.0012 25.976C66.3932 24.968 66.0892 23.824 66.0892 22.544C66.0892 21.264 66.3932 20.12 67.0012 19.112C67.6093 18.104 68.4493 17.32 69.5213 16.76C70.6093 16.184 71.8333 15.896 73.1933 15.896C74.5533 15.896 75.7693 16.184 76.8413 16.76C77.9133 17.32 78.7533 18.104 79.3613 19.112C79.9693 20.12 80.2733 21.264 80.2733 22.544C80.2733 23.824 79.9693 24.968 79.3613 25.976C78.7533 26.984 77.9133 27.776 76.8413 28.352C75.7693 28.912 74.5533 29.192 73.1933 29.192ZM73.1933 26.12C74.1533 26.12 74.9373 25.8 75.5453 25.16C76.1693 24.504 76.4813 23.632 76.4813 22.544C76.4813 21.456 76.1693 20.592 75.5453 19.952C74.9373 19.296 74.1533 18.968 73.1933 18.968C72.2333 18.968 71.4413 19.296 70.8173 19.952C70.1933 20.592 69.8813 21.456 69.8813 22.544C69.8813 23.632 70.1933 24.504 70.8173 25.16C71.4413 25.8 72.2333 26.12 73.1933 26.12ZM85.9198 16.376H89.2318V19.256H86.0158V29H82.2718V19.256H80.2798V16.376H82.2718V15.8C82.2718 14.328 82.7038 13.16 83.5678 12.296C84.4478 11.432 85.6798 11 87.2638 11C87.8238 11 88.3518 11.064 88.8478 11.192C89.3598 11.304 89.7838 11.472 90.1198 11.696L89.1358 14.408C88.7038 14.104 88.1998 13.952 87.6238 13.952C86.4878 13.952 85.9198 14.576 85.9198 15.824V16.376ZM96.117 29.192C94.757 29.192 93.533 28.912 92.445 28.352C91.373 27.776 90.533 26.984 89.925 25.976C89.317 24.968 89.013 23.824 89.013 22.544C89.013 21.264 89.317 20.12 89.925 19.112C90.533 18.104 91.373 17.32 92.445 16.76C93.533 16.184 94.757 15.896 96.117 15.896C97.477 15.896 98.693 16.184 99.765 16.76C100.837 17.32 101.677 18.104 102.285 19.112C102.893 20.12 103.197 21.264 103.197 22.544C103.197 23.824 102.893 24.968 102.285 25.976C101.677 26.984 100.837 27.776 99.765 28.352C98.693 28.912 97.477 29.192 96.117 29.192ZM96.117 26.12C97.077 26.12 97.861 25.8 98.469 25.16C99.093 24.504 99.405 23.632 99.405 22.544C99.405 21.456 99.093 20.592 98.469 19.952C97.861 19.296 97.077 18.968 96.117 18.968C95.157 18.968 94.365 19.296 93.741 19.952C93.117 20.592 92.805 21.456 92.805 22.544C92.805 23.632 93.117 24.504 93.741 25.16C94.365 25.8 95.157 26.12 96.117 26.12Z" fill="white"/>
</svg>
