<svg width="24" height="24" viewBox="0 0 24 24" fill="none" xmlns="http://www.w3.org/2000/svg">
<path fill-rule="evenodd" clip-rule="evenodd" d="M21.6 12.2273C21.6 11.5182 21.5364 10.8364 21.4182 10.1819H12V14.0501H17.3818C17.15 15.3001 16.4455 16.3592 15.3864 17.0682V19.5773H18.6182C20.5091 17.8364 21.6 15.2728 21.6 12.2273Z" fill="#4285F4"/>
<path fill-rule="evenodd" clip-rule="evenodd" d="M12 21.9999C14.7 21.9999 16.9637 21.1044 18.6182 19.5772L15.3864 17.0681C14.4909 17.6681 13.3455 18.0226 12 18.0226C9.39548 18.0226 7.19093 16.2635 6.40457 13.8999H3.06366V16.4908C4.70911 19.759 8.09093 21.9999 12 21.9999Z" fill="#34A853"/>
<path fill-rule="evenodd" clip-rule="evenodd" d="M6.40455 13.8999C6.20455 13.2999 6.09091 12.659 6.09091 11.9999C6.09091 11.3409 6.20455 10.6999 6.40455 10.0999V7.50903H3.06364C2.38636 8.85903 2 10.3863 2 11.9999C2 13.6136 2.38636 15.1409 3.06364 16.4909L6.40455 13.8999Z" fill="#FBBC05"/>
<path fill-rule="evenodd" clip-rule="evenodd" d="M12 5.97727C13.4682 5.97727 14.7864 6.48182 15.8227 7.47273L18.6909 4.60455C16.9591 2.99091 14.6955 2 12 2C8.09093 2 4.70911 4.24091 3.06366 7.50909L6.40457 10.1C7.19093 7.73636 9.39548 5.97727 12 5.97727Z" fill="#EA4335"/>
</svg>
