<svg width="20" height="20" viewBox="0 0 20 20" fill="none" xmlns="http://www.w3.org/2000/svg">
<path d="M10 16C9.78385 15.9997 9.57279 15.9391 9.39426 15.8259C6.74955 14.1587 5.60437 13.0156 4.97272 12.3009C3.62664 10.7775 2.9822 9.21344 3.00037 7.51969C3.02157 5.57875 4.69846 4 6.73844 4C8.22183 4 9.24922 4.77594 9.84756 5.42219C9.86651 5.44245 9.88993 5.4587 9.91623 5.46984C9.94253 5.48098 9.9711 5.48674 10 5.48674C10.0289 5.48674 10.0575 5.48098 10.0838 5.46984C10.1101 5.4587 10.1335 5.44245 10.1524 5.42219C10.7508 4.77531 11.7782 4 13.2616 4C15.3015 4 16.9784 5.57875 16.9996 7.52C17.0178 9.21406 16.3727 10.7781 15.0273 12.3013C14.3956 13.0159 13.2505 14.1591 10.6057 15.8263C10.4272 15.9393 10.2161 15.9998 10 16V16Z" fill="white" stroke="white" stroke-width="1.5"/>
</svg>
