<svg width="24" height="24" viewBox="0 0 24 24" fill="none" xmlns="http://www.w3.org/2000/svg">
<mask id="path-1-inside-1_6_2529" fill="white">
<path fill-rule="evenodd" clip-rule="evenodd" d="M4 9.5C4 9.18524 4.14819 8.88885 4.4 8.7L11.4 3.45C11.7556 3.18333 12.2444 3.18333 12.6 3.45L19.6 8.7C19.8518 8.88885 20 9.18524 20 9.5V19C20 19.5523 19.5523 20 19 20H5C4.44772 20 4 19.5523 4 19V9.5Z"/>
</mask>
<path fill-rule="evenodd" clip-rule="evenodd" d="M4 9.5C4 9.18524 4.14819 8.88885 4.4 8.7L11.4 3.45C11.7556 3.18333 12.2444 3.18333 12.6 3.45L19.6 8.7C19.8518 8.88885 20 9.18524 20 9.5V19C20 19.5523 19.5523 20 19 20H5C4.44772 20 4 19.5523 4 19V9.5Z" fill="#554AD4" fill-opacity="0.2"/>
<path d="M19.6 8.7L20.8 7.1L19.6 8.7ZM4.4 8.7L5.6 10.3L4.4 8.7ZM10.2 1.85L3.2 7.1L5.6 10.3L12.6 5.05L10.2 1.85ZM20.8 7.1L13.8 1.85L11.4 5.05L18.4 10.3L20.8 7.1ZM18 9.5V19H22V9.5H18ZM19 18H5V22H19V18ZM6 19V9.5H2V19H6ZM5 18C5.55228 18 6 18.4477 6 19H2C2 20.6569 3.34315 22 5 22V18ZM18 19C18 18.4477 18.4477 18 19 18V22C20.6569 22 22 20.6569 22 19H18ZM18.4 10.3C18.1482 10.1111 18 9.81476 18 9.5H22C22 8.55573 21.5554 7.66656 20.8 7.1L18.4 10.3ZM3.2 7.1C2.44458 7.66656 2 8.55573 2 9.5H6C6 9.81476 5.85181 10.1111 5.6 10.3L3.2 7.1ZM12.6 5.05C12.2444 5.31667 11.7556 5.31667 11.4 5.05L13.8 1.85C12.7333 1.05 11.2667 1.05 10.2 1.85L12.6 5.05Z" fill="#554AD4" mask="url(#path-1-inside-1_6_2529)"/>
<path d="M11 14.5C11 14.2239 11.2239 14 11.5 14H12.5C12.7761 14 13 14.2239 13 14.5V18H11V14.5Z" fill="#554AD4"/>
<rect x="14.5" y="11" width="2" height="4" rx="0.5" fill="#554AD4"/>
<rect x="7.5" y="11" width="2" height="4" rx="0.5" fill="#554AD4"/>
</svg>
