<svg width="24" height="24" viewBox="0 0 24 24" fill="none" xmlns="http://www.w3.org/2000/svg">
<rect x="10" y="10" width="4" height="4" rx="2" stroke="#554AD4" stroke-width="2"/>
<path d="M4.90754 14.3501L3.2289 12L4.90754 9.64991C6.54363 7.35939 9.18518 6 12 6C14.8148 6 17.4564 7.35939 19.0925 9.64991L20.7711 12L19.0925 14.3501C17.4564 16.6406 14.8148 18 12 18C9.18518 18 6.54363 16.6406 4.90754 14.3501Z" stroke="#554AD4" stroke-width="2"/>
<path d="M5.03033 3L4.03033 4L20.0303 20L21.0303 19L5.03033 3Z" fill="white"/>
<path fill-rule="evenodd" clip-rule="evenodd" d="M19.1414 20.889C19.0633 20.9671 18.9367 20.9671 18.8586 20.889L3.14142 5.17181C3.06332 5.0937 3.06332 4.96707 3.14142 4.88897L3.91924 4.11115C3.99734 4.03304 4.12398 4.03304 4.20208 4.11115L19.9192 19.8283C19.9973 19.9064 19.9973 20.033 19.9192 20.1111L19.1414 20.889Z" fill="#554AD4"/>
</svg>
