<svg width="20" height="20" viewBox="0 0 20 20" fill="none" xmlns="http://www.w3.org/2000/svg">
<mask id="path-1-inside-1_24_1950" fill="white">
<path fill-rule="evenodd" clip-rule="evenodd" d="M6 3C4.34315 3 3 4.34315 3 6V12C3 13.6569 4.34315 15 6 15H9.5L13.2227 17.4818C13.5549 17.7033 14 17.4651 14 17.0657V15C15.6569 15 17 13.6569 17 12V6C17 4.34315 15.6569 3 14 3H6Z"/>
</mask>
<path d="M9.5 15L10.3321 13.7519L9.95416 13.5H9.5V15ZM13.2227 17.4818L14.0547 16.2337L14.0547 16.2337L13.2227 17.4818ZM14 15V13.5H12.5V15H14ZM4.5 6C4.5 5.17157 5.17157 4.5 6 4.5V1.5C3.51472 1.5 1.5 3.51472 1.5 6H4.5ZM4.5 12V6H1.5V12H4.5ZM6 13.5C5.17157 13.5 4.5 12.8284 4.5 12H1.5C1.5 14.4853 3.51472 16.5 6 16.5V13.5ZM9.5 13.5H6V16.5H9.5V13.5ZM14.0547 16.2337L10.3321 13.7519L8.66795 16.2481L12.3906 18.7298L14.0547 16.2337ZM12.5 17.0657C12.5 16.2671 13.3901 15.7907 14.0547 16.2337L12.3906 18.7298C13.7197 19.6159 15.5 18.6631 15.5 17.0657H12.5ZM12.5 15V17.0657H15.5V15H12.5ZM15.5 12C15.5 12.8284 14.8284 13.5 14 13.5V16.5C16.4853 16.5 18.5 14.4853 18.5 12H15.5ZM15.5 6V12H18.5V6H15.5ZM14 4.5C14.8284 4.5 15.5 5.17157 15.5 6H18.5C18.5 3.51472 16.4853 1.5 14 1.5V4.5ZM6 4.5H14V1.5H6V4.5Z" fill="#141414" fill-opacity="0.6" mask="url(#path-1-inside-1_24_1950)"/>
<rect x="6.5" y="6.5" width="7" height="1.75" rx="0.4375" fill="#141414" fill-opacity="0.6"/>
<rect x="6.5" y="10" width="3.5" height="1.75" rx="0.4375" fill="#141414" fill-opacity="0.6"/>
</svg>
