<svg width="24" height="24" viewBox="0 0 24 24" fill="none" xmlns="http://www.w3.org/2000/svg">
<path d="M12 3C10.1442 3.00221 8.36495 3.74795 7.05268 5.07362C5.7404 6.39929 5.0022 8.19665 5.00001 10.0714C4.99778 11.6035 5.49318 13.094 6.41019 14.3143C6.41019 14.3143 6.6011 14.5682 6.63228 14.6049L11.617 20.5437C11.8168 20.7818 12.1832 20.7818 12.383 20.5437L17.3703 14.6016C17.3983 14.5676 17.5898 14.3143 17.5898 14.3143L17.5904 14.3124C18.507 13.0926 19.0022 11.6028 19 10.0714C18.9978 8.19665 18.2596 6.39929 16.9473 5.07362C15.635 3.74795 13.8558 3.00221 12 3ZM12 12.6429C11.4966 12.6429 11.0044 12.492 10.5858 12.2095C10.1672 11.9269 9.84097 11.5253 9.64831 11.0555C9.45565 10.5856 9.40524 10.0686 9.50346 9.56977C9.60168 9.07096 9.84411 8.61277 10.2001 8.25315C10.5561 7.89353 11.0096 7.64863 11.5034 7.54941C11.9972 7.45019 12.509 7.50111 12.9741 7.69574C13.4392 7.89036 13.8368 8.21995 14.1165 8.64282C14.3962 9.06569 14.5455 9.56285 14.5455 10.0714C14.5446 10.7532 14.2762 11.4067 13.799 11.8888C13.3218 12.3708 12.6748 12.642 12 12.6429Z" fill="#141414" fill-opacity="0.4"/>
</svg>
